HIERARCHY
ROOT Hips
{
  OFFSET 1.44925e-005 102.336 -0.101585
  CHANNELS 6 Xposition Yposition Zposition Zrotation Xrotation Yrotation
  JOINT LeftUpLeg
  {
    OFFSET 8.9458 -8.66707 0.101652
    CHANNELS 3 Zrotation Xrotation Yrotation
    JOINT LeftLeg
    {
      OFFSET 0 -44.4227 1.3727
      CHANNELS 3 Zrotation Xrotation Yrotation
      JOINT LeftFoot
      {
        OFFSET -0.253549 -42.0924 -1.46059
        CHANNELS 3 Zrotation Xrotation Yrotation
        JOINT LeftToes
        {
          OFFSET -0.04 -4.41509 8.4991
          CHANNELS 3 Zrotation Xrotation Yrotation
          End Site
          {
            OFFSET 0.08 -0.047448 9.77979
          }
        }
      }
    }
  }
  JOINT Spine
  {
    OFFSET 0 11.8905 0
    CHANNELS 3 Zrotation Xrotation Yrotation
    JOINT Spine1
    {
      OFFSET 0 25.6574 0.127663
      CHANNELS 3 Zrotation Xrotation Yrotation
      JOINT RightShoulder
      {
        OFFSET -8.99 -0.362252 -0.22
        CHANNELS 3 Zrotation Xrotation Yrotation
        JOINT RightArm
        {
          OFFSET -10.2827 -0.00338 0.322123
          CHANNELS 3 Zrotation Xrotation Yrotation
          JOINT RightForeArm
          {
            OFFSET -26.364 0.099144 -1.42434
            CHANNELS 3 Zrotation Xrotation Yrotation
            JOINT RightHand
            {
              OFFSET -22.0324 0.085362 1.02216
              CHANNELS 3 Zrotation Xrotation Yrotation
              End Site
              {
                OFFSET -13.3284 -0.6 1.50291
              }
            }
          }
        }
      }
      JOINT LeftShoulder1
      {
        OFFSET 8.99 -0.362252 -0.22
        CHANNELS 3 Zrotation Xrotation Yrotation
        JOINT LeftArm
        {
          OFFSET 10.2827 -0.00337999 0.322123
          CHANNELS 3 Zrotation Xrotation Yrotation
          JOINT LeftForeArm
          {
            OFFSET 26.2597 0.099144 -1.42434
            CHANNELS 3 Zrotation Xrotation Yrotation
            JOINT LeftHand
            {
              OFFSET 22.0902 0.085362 1.02216
              CHANNELS 3 Zrotation Xrotation Yrotation
              End Site
              {
                OFFSET 13.419 -0.6 1.50291
              }
            }
          }
        }
      }
      JOINT Head
      {
        OFFSET 0 8.73416 0.011341
        CHANNELS 3 Zrotation Xrotation Yrotation
        End Site
        {
          OFFSET -0.29 12.7742 2.51395
        }
      }
    }
  }
  JOINT RightUpLeg
  {
    OFFSET -8.9458 -8.66707 0.101652
    CHANNELS 3 Zrotation Xrotation Yrotation
    JOINT RightLeg
    {
      OFFSET 0 -44.4227 1.3727
      CHANNELS 3 Zrotation Xrotation Yrotation
      JOINT RightFoot
      {
        OFFSET 0.253549 -42.0924 -1.46059
        CHANNELS 3 Zrotation Xrotation Yrotation
        JOINT RightToes
        {
          OFFSET 0.04 -4.41509 8.4991
          CHANNELS 3 Zrotation Xrotation Yrotation
          End Site
          {
            OFFSET -0.08 -0.137448 9.77979
          }
        }
      }
    }
  }
}
MOTION
Frames:	21
Frame Time:	0.0333333
87.3754 96.5876 5.18536 -8.73254 -4.36041 -98.4204 -11.2777 -15.0353 4.24714 1.43952 31.2059 28.1756 3.19616 -15.7105 0.310883 -1.39563e-009 8.75199e-006 -1.46473e-008 -6.07635 13.8169 1.55972 -2.9597 -1.22906 0.785773 38.4762 1.79326 0.0239649 39.65 -31.6027 3.64167 16.2895 50.6266 -12.8403 -11.3208 9.59219 -2.1045 -46.2617 3.82605 -3.6973 -29.0309 -26.1499 -3.50949 -12.5819 44.6468 -0.670874 5.82328 9.61819 -0.917488 -2.44996 -13.0507 1.61469 -8.79073 -3.28991 0.722044 -2.19779 75.3642 -6.27992 15.1135 3.59615 -1.6056 0.0462048 0.000530889 0.662642 
83.8563 97.1261 5.21747 -9.08125 -4.89315 -97.1315 -12.2722 -11.5005 3.58003 1.1399 29.8341 27.6191 2.3981 -17.0419 0.290261 -1.39563e-009 8.75199e-006 -1.46473e-008 -8.07406 14.8768 0.681415 -1.46286 -1.10447 -0.748964 38.3014 1.79457 0.0413154 35.0794 -30.2167 -5.88289 15.3793 51.5476 -10.3912 -10.4838 9.61247 -2.06302 -46.1748 3.83677 -3.73065 -30.3418 -26.6115 -14.5733 -11.4902 41.4158 -2.81926 5.82328 9.61819 -0.917488 -2.45205 -14.2986 3.01051 -8.69518 -11.411 0.220377 -7.59046 85.0452 -3.67809 12.4238 0.460348 -1.00528 0.0462048 0.000530889 0.662642 
80.3194 97.8148 5.25637 -9.03448 -4.8799 -95.2215 -12.4579 -8.04479 1.88476 0.379141 28.0109 27.6937 1.59514 -18.1272 0.244214 -1.39563e-009 8.75199e-006 -1.46473e-008 -8.92353 16.0008 -0.506455 -0.310867 -1.88174 -2.3522 37.8641 1.789 0.0666308 31.4006 -27.1335 -15.0962 13.2165 50.108 -5.3216 -9.93763 9.60338 -1.74162 -45.2485 3.74975 -3.70654 -31.8268 -26.7323 -24.5962 -10.0148 39.1099 -5.43898 5.82328 9.61819 -0.917488 -2.09268 -14.398 4.10274 -8.34583 -19.0556 -1.28376 -118.846 89.1714 105.986 11.1627 -3.90433 -0.511742 0.0462048 0.000530889 0.662642 
76.7113 98.373 5.28906 -8.95405 -4.62082 -93.6468 -12.1008 -4.41396 0.91038 -0.365055 25.9239 27.475 0.816898 -19.5852 0.192709 -1.39563e-009 8.75199e-006 -1.46473e-008 -9.04748 16.8362 -1.54472 0.268728 -2.62651 -3.52845 37.3532 1.78649 0.103268 28.6376 -24.8183 -23.1215 11.3175 47.4032 -0.932227 -9.33663 9.59003 -1.29094 -43.6999 3.58805 -3.62967 -33.2213 -26.0587 -33.5177 -8.00264 37.1255 -8.73575 5.82328 9.61819 -0.917488 -1.4792 -13.9897 4.76192 -7.81074 -25.9701 -2.49029 -155.339 88.1432 141.071 10.5277 -6.17584 -0.299392 0.0462048 0.000530889 0.662642 
72.9679 98.8853 5.33834 -8.97812 -4.13667 -92.6339 -11.4033 -0.204688 0.626805 -0.908789 22.9334 26.8639 0.602909 -20.5613 0.181312 -1.39563e-009 8.75199e-006 -1.46473e-008 -8.63556 17.1454 -2.39773 0.689042 -2.74469 -4.27421 37.0496 1.79255 0.14355 26.0254 -23.7622 -29.3954 10.4158 45.5171 1.11005 -8.909 9.56932 -0.769691 -41.9836 3.40965 -3.536 -32.4918 -23.5085 -40.5562 -5.7354 33.0091 -12.9121 5.82328 9.61819 -0.917488 -0.813587 -13.5503 5.18347 -6.8188 -31.5706 -3.03623 -45.756 88.8497 29.7836 9.65361 -7.81741 -0.159893 0.0462048 0.000530889 0.662642 
69.1961 99.267 5.39882 -9.00983 -3.56811 -91.8663 -10.6398 3.88629 1.05674 -1.03939 20.0034 25.5467 0.613344 -21.161 0.189159 -1.39563e-009 8.75199e-006 -1.46473e-008 -8.04399 17.2829 -3.10935 1.14102 -2.58588 -4.81717 37.0387 1.80385 0.170651 23.2498 -23.5612 -33.832 10.2815 45.149 0.951018 -8.90524 9.55105 -0.497937 -40.3776 3.23844 -3.42872 -28.7696 -19.6421 -45.5299 -3.67958 26.6167 -17.6905 5.82328 9.61819 -0.917488 -0.286371 -13.2351 5.43743 -5.75265 -35.5835 -3.31863 -7.33052 83.1227 -9.94206 9.2526 -9.91704 -0.000674915 0.0462048 0.000530889 0.662642 
65.4358 99.343 5.44751 -8.97851 -3.1512 -91.1414 -10.0249 7.32137 1.90812 -0.989365 18.1933 23.8105 0.22285 -22.1236 0.149772 -1.39563e-009 8.75199e-006 -1.46473e-008 -7.72723 17.5762 -3.63035 1.80545 -2.60324 -5.26622 37.1816 1.81232 0.177838 20.4169 -23.9533 -36.668 10.6236 45.3646 -0.652181 -9.056 9.56075 -0.728372 -38.9576 3.07963 -3.30792 -25.8148 -17.9424 -49.7537 -1.94155 22.7213 -22.6779 5.82328 9.61819 -0.917488 0.0348809 -13.1419 5.47899 -5.03875 -37.8169 -3.63561 -3.22561 73.9753 -14.3861 9.59285 -11.4469 0.125136 0.0462048 0.000530889 0.662642 
61.6836 99.155 5.49765 -8.95749 -2.89559 -90.4904 -9.61668 10.6035 2.53597 -0.966582 16.7269 22.4042 -0.191008 -23.2161 0.10172 -1.39563e-009 8.75199e-006 -1.46473e-008 -7.6731 18.0551 -3.92042 2.87891 -2.65139 -5.61822 37.3289 1.81647 0.174072 17.8718 -24.705 -38.2491 10.94 45.0738 -2.385 -9.20126 9.59262 -1.2602 -37.8091 2.94961 -3.1988 -27.63 -20.2855 -54.3618 -0.346338 24.6895 -27.7063 5.82328 9.61819 -0.917488 0.208029 -13.2952 5.32308 -4.3877 -38.0175 -3.76424 -1.87567 62.0163 -15.6285 9.91507 -12.1806 0.195774 0.0462048 0.000530889 0.662642 
57.8431 98.7156 5.55957 -9.07985 -2.74009 -89.9762 -9.40717 14.0872 3.05862 -0.924035 15.2163 21.3996 -0.362215 -24.4244 0.0810545 -1.39563e-009 8.75199e-006 -1.46473e-008 -7.53419 18.5287 -4.00836 3.92315 -2.43442 -5.81871 37.383 1.81909 0.174767 16.2094 -25.5168 -38.8197 10.8044 43.8214 -3.00195 -9.618 9.61025 -1.69909 -37.0178 2.86118 -3.12172 -29.8896 -22.0506 -58.0798 1.02371 26.3174 -32.5712 5.82328 9.61819 -0.917488 0.271574 -13.5707 4.98284 -3.60401 -36.3605 -3.56358 -1.33537 48.3324 -15.9609 10.1139 -12.5334 0.233281 0.0462048 0.000530889 0.662642 
53.6848 97.9231 5.59689 -9.34315 -2.7139 -89.5005 -9.29689 17.4062 3.76773 -0.851256 14.7719 20.4049 -1.02586 -26.2849 -0.0272635 -1.39563e-009 8.75199e-006 -1.46473e-008 -7.2829 18.6703 -3.99207 4.50732 -2.00601 -5.86306 37.2419 1.81931 0.18837 15.9087 -26.2382 -38.2728 10.4062 41.8928 -2.4663 -10.1747 9.60193 -1.82022 -36.543 2.80888 -3.07543 -31.5805 -22.6061 -60.4438 2.18932 27.2104 -36.808 5.82328 9.61819 -0.917488 0.166802 -13.7676 4.48475 -3.00436 -33.5678 -3.53925 -1.07988 35.4919 -15.5263 10.7456 -12.8578 0.290821 0.0462048 0.000530889 0.662642 
49.1615 96.9087 5.54481 -9.48163 -2.90419 -88.6844 -9.1159 20.1141 4.60982 -0.619893 15.9363 18.7791 -2.5716 -28.1304 -0.320267 -1.39563e-009 8.75199e-006 -1.46473e-008 -7.46884 18.2734 -3.98589 5.30736 -1.55778 -6.00778 36.9179 1.8134 0.203482 16.8104 -26.8649 -36.3369 10.1977 40.2349 -1.75242 -10.2515 9.59056 -1.70551 -36.3459 2.78842 -3.0588 -32.8167 -22.1899 -61.1353 3.66611 28.2461 -40.4054 5.82328 9.61819 -0.917488 -0.148825 -13.6098 3.93336 -2.83374 -30.3899 -4.31955 -0.88418 26.2456 -14.9012 11.61 -14.1242 0.453732 0.0462048 0.000530889 0.662642 
44.3776 96.0204 5.37637 -9.1669 -3.16787 -87.0891 -8.57251 22.0644 5.29006 0.0734043 18.0483 16.2307 -4.85571 -28.7384 -0.770409 -1.39563e-009 8.75199e-006 -1.46473e-008 -8.15496 17.3307 -4.12981 6.96926 -1.27482 -6.50409 36.6502 1.79434 0.18293 18.2794 -27.4373 -33.1985 10.275 39.6389 -1.55501 -9.96825 9.5911 -1.59639 -36.6035 2.81719 -3.08515 -33.3106 -20.8146 -59.7055 5.44516 29.4396 -43.3054 5.82328 9.61819 -0.917488 -0.666554 -12.8007 3.28834 -2.95948 -27.2628 -5.61805 -0.469812 21.479 -16.0357 11.2958 -15.8233 0.593119 0.0462048 0.000530889 0.662642 
39.3115 95.4205 5.17927 -8.44026 -2.78888 -85.1991 -7.00706 23.2796 5.08752 0.844949 20.7652 14.0223 -8.4849 -28.1222 -1.426 -1.39563e-009 8.75199e-006 -1.46473e-008 -7.70267 15.8792 -4.47773 8.45501 -1.274 -6.94524 36.663 1.76461 0.112414 19.9267 -28.2002 -29.3223 10.4456 40.0267 -1.80241 -10.1142 9.57863 -1.50002 -37.5239 2.91178 -3.15752 -32.5991 -18.2792 -55.9538 6.95573 30.3851 -45.2804 5.82328 9.61819 -0.917488 -1.44542 -11.3995 2.36564 -2.60784 -24.8331 -6.88873 0.248353 20.5695 -18.9611 8.68647 -15.1787 0.369243 0.0462048 0.000530889 0.662642 
34.0265 94.9779 5.07747 -7.75854 -1.02734 -84.4995 -4.06411 23.4513 4.46775 0.88742 25.2464 13.1969 -13.1921 -26.1654 -2.06431 -1.39563e-009 8.75199e-006 -1.46473e-008 -4.46233 14.1132 -4.69798 8.37052 -1.32563 -6.56636 36.8872 1.742 0.0403805 21.9831 -29.504 -24.2675 10.6208 40.8481 -2.41383 -10.5959 9.54315 -1.26704 -38.9323 3.04967 -3.24562 -31.0893 -14.8632 -50.1209 8.15002 31.1445 -46.4656 5.82328 9.61819 -0.917488 -2.50303 -10.0575 1.43711 -0.768057 -24.19 -9.33008 0.269408 23.3316 -18.9494 4.56771 -11.422 -0.0358581 0.0462048 0.000530889 0.662642 
28.7812 94.6417 5.0167 -7.4083 1.46353 -85.6839 -0.766498 21.8267 5.50498 0.891978 33.0881 12.5867 -15.466 -20.3788 -1.67768 -1.39563e-009 8.75199e-006 -1.46473e-008 0.0703985 12.607 -4.34661 7.30981 -1.16055 -5.41908 37.1127 1.74115 0.0192756 25.0834 -31.3763 -16.7096 10.9073 41.8403 -3.60442 -10.5551 9.5139 -0.891541 -40.3408 3.18319 -3.31647 -29.816 -11.3807 -42.6903 9.41355 32.0927 -47.0256 5.82328 9.61819 -0.917488 -3.47495 -9.54597 1.22477 2.26843 -24.818 -11.375 -0.827701 28.4295 -15.5303 0.497649 -7.89242 -0.179061 0.0462048 0.000530889 0.662642 
23.9847 94.4123 4.81205 -7.40124 3.47008 -87.2615 2.12685 17.3842 5.99088 1.10148 44.9745 13.1624 -12.8461 -9.43015 -0.203748 -1.39563e-009 8.75199e-006 -1.46473e-008 3.32578 12.1164 -3.84613 6.95725 -0.748058 -4.38994 37.3223 1.75552 0.0347227 29.8287 -33.2724 -6.42097 11.0839 42.5638 -4.62696 -10.0097 9.50536 -0.512075 -41.3842 3.27911 -3.35818 -29.1041 -7.69966 -34.7198 10.1868 33.1904 -45.7781 5.82328 9.61819 -0.917488 -3.62054 -10.018 1.69468 5.45418 -24.7472 -9.49541 -1.05167 33.1042 -15.0176 -2.59173 -8.16468 -0.19472 0.0462048 0.000530889 0.662642 
19.8632 94.1465 4.48887 -7.80323 4.96139 -87.3763 4.38964 10.637 4.23566 1.60204 58.6085 14.6621 -8.80744 1.30891 0.685402 -1.39563e-009 8.75199e-006 -1.46473e-008 5.60022 12.6863 -3.83189 7.12747 -0.0869024 -3.81251 37.6598 1.76678 0.0321526 35.7916 -34.0521 4.69917 10.5059 41.4856 -3.49565 -9.83886 9.49609 -0.296856 -42.144 3.34057 -3.36922 -28.1474 -1.87193 -28.035 8.70145 33.5306 -40.2856 5.82328 9.61819 -0.917488 -2.65796 -10.9294 1.60189 7.73574 -23.4478 -8.07324 -1.11184 36.6143 -16.1489 -3.94959 -11.8467 -0.341883 0.0462048 0.000530889 0.662642 
15.9928 94.2623 4.24705 -8.48585 5.70572 -86.5476 5.36918 3.58077 1.70609 2.66938 70.4258 16.3993 -6.60449 4.71687 0.680869 -1.39563e-009 8.75199e-006 -1.46473e-008 8.23324 13.4094 -3.87787 6.04713 0.650364 -2.98619 37.9967 1.76679 0.00405336 41.1674 -32.8598 14.5106 9.63186 37.7115 0.0939133 -10.3149 9.47882 -0.340519 -43.0197 3.40075 -3.3591 -26.0141 7.74989 -23.8404 3.82307 31.1565 -29.9532 5.82328 9.61819 -0.917488 -1.33653 -11.6185 -0.00384014 8.88303 -20.9013 -8.01244 -1.18242 38.3115 -17.2816 -3.56777 -15.3284 -0.46516 0.0462048 0.000530889 0.662642 
11.9198 95.0993 4.13958 -9.07112 5.6829 -86.6326 5.00778 -2.77805 0.434766 4.71712 78.5504 16.52 -5.25497 1.08926 0.38047 -1.39563e-009 8.75199e-006 -1.46473e-008 10.5932 13.6523 -3.25899 3.52651 1.13604 -1.48708 37.8637 1.75894 -0.00270335 44.517 -29.2743 22.6993 9.46749 33.0483 4.19898 -10.7995 9.46718 -0.456677 -44.1708 3.48106 -3.34729 -26.1987 10.6288 -20.3113 -2.75975 33.6747 -17.3621 5.82328 9.61819 -0.917488 -0.560463 -11.6676 -2.42866 9.13928 -17.2196 -7.97658 -1.18565 37.9218 -17.2707 -2.51066 -17.1443 -0.448435 0.0462048 0.000530889 0.662642 
7.81426 96.1709 4.06079 -9.33511 5.07276 -87.6841 4.04757 -8.84966 0.175979 7.87616 83.0673 13.2329 -4.85273 -4.27953 0.151057 -1.39563e-009 8.75199e-006 -1.46473e-008 11.7353 13.7921 -2.27102 1.21002 1.11642 0.107547 37.0024 1.74098 0.0282974 44.8212 -22.2337 29.5112 9.17511 28.8971 8.13008 -10.7976 9.44199 -0.153688 -45.2193 3.55919 -3.34525 -31.6992 -10.387 -15.1818 -16.4702 54.8988 0.540538 5.82328 9.61819 -0.917488 -0.44593 -11.0552 -4.29968 8.79474 -13.1753 -7.56893 -1.14349 36.3358 -16.5556 -1.6328 -18.5246 -0.403548 0.0462048 0.000530889 0.662642 
3.75574 97.0759 3.94955 -9.39525 4.1842 -88.759 2.84677 -14.8004 -0.254332 9.79652 84.6063 9.75875 -5.12053 -7.46423 0.0384896 -1.39563e-009 8.75199e-006 -1.46473e-008 11.9281 14.0512 -1.44325 -0.380076 0.603719 1.26459 35.6525 1.70366 0.0563439 42.7023 -13.9833 35.4441 7.73743 25.881 12.2803 -10.7195 9.37678 0.658323 -45.7293 3.59265 -3.33511 -30.9809 -20.99 -7.70171 -25.2739 59.5827 13.7898 5.82328 9.61819 -0.917488 -0.598357 -10.3008 -5.29483 8.02595 -9.17386 -7.28729 -0.947947 34.3681 -15.8955 -1.10213 -20.0104 -0.377457 0.0462048 0.000530889 0.662642 
